<?xml version="1.0" standalone="no"?>
<!DOCTYPE svg PUBLIC "-//W3C//DTD SVG 20010904//EN"
 "http://www.w3.org/TR/2001/REC-SVG-20010904/DTD/svg10.dtd">
<svg version="1.0" xmlns="http://www.w3.org/2000/svg"
 width="300.000000pt" height="300.000000pt" viewBox="0 0 300.000000 300.000000"
 preserveAspectRatio="xMidYMid meet">
<metadata>
Created by potrace 1.11, written by Peter Selinger 2001-2013
</metadata>
<g transform="translate(0.000000,300.000000) scale(0.100000,-0.100000)"
fill="#000000" stroke="none">
<path d="M0 1500 l0 -1500 1500 0 1500 0 0 1500 0 1500 -1500 0 -1500 0 0
-1500z m1169 1179 c24 -9 101 -91 299 -323 146 -171 345 -403 441 -515 96
-112 183 -220 193 -240 36 -70 14 -164 -53 -228 -19 -17 -93 -78 -165 -135
-72 -57 -359 -283 -638 -503 -278 -220 -519 -404 -535 -409 -96 -28 -201 64
-201 177 0 101 -30 72 505 497 575 456 680 541 683 550 2 5 -78 103 -177 219
-100 116 -263 306 -362 423 -100 116 -188 223 -195 237 -30 58 -8 168 42 212
53 46 105 58 163 38z m1221 -1984 c67 -35 106 -132 81 -207 -6 -19 -27 -50
-47 -69 l-35 -34 -380 -3 c-336 -2 -383 -1 -414 14 -53 25 -79 68 -83 139 -3
52 0 65 24 102 48 73 43 73 457 73 308 0 373 -2 397 -15z"/>
</g>
</svg>
